<svg  viewBox="0 0 518 180" fill="none" xmlns="http://www.w3.org/2000/svg">
<path d="M412.333 143.833C397.958 71.9583 334.833 18 259 18C198.792 18 146.5 52.1667 120.458 102.167C57.75 108.833 9 161.958 9 226.333C9 295.292 65.0417 351.333 134 351.333H404.833C462.333 351.333 509 304.667 509 247.167C509 192.167 466.292 147.583 412.333 143.833Z" fill="#0242A3"/>
<path d="M258 172.52C244.25 172.52 233 184.054 233 198.15C233 212.247 244.25 223.78 258 223.78C271.75 223.78 283 212.247 283 198.15C283 184.054 271.75 172.52 258 172.52ZM333 198.15C333 155.732 299.375 121.26 258 121.26C216.625 121.26 183 155.732 183 198.15C183 226.599 198.125 251.332 220.5 264.66L233 242.362C218.125 233.391 208 217.116 208 198.15C208 169.829 230.375 146.89 258 146.89C285.625 146.89 308 169.829 308 198.15C308 217.116 297.875 233.391 283 242.362L295.5 264.66C317.875 251.332 333 226.599 333 198.15ZM258 70C189 70 133 127.411 133 198.15C133 245.566 158.125 286.83 195.375 309L207.875 286.83C178.125 269.017 158 236.083 158 198.15C158 141.508 202.75 95.63 258 95.63C313.25 95.63 358 141.508 358 198.15C358 236.083 337.875 269.017 308 286.83L320.5 309C357.875 286.83 383 245.566 383 198.15C383 127.411 327 70 258 70V70Z" fill="white"/>
<line x1="258.567" y1="231.072" x2="257.5" y2="342.071" stroke="white" stroke-width="15"/>
</svg>
