<?xml version="1.0" encoding="UTF-8" standalone="no"?>
<!-- Generator: Gravit.io -->
<svg xmlns="http://www.w3.org/2000/svg" xmlns:xlink="http://www.w3.org/1999/xlink" style="isolation:isolate" viewBox="0 0 1000 1000" width="1000pt" height="1000pt"><defs><clipPath id="_clipPath_CCtlsKTLxFUh1p74C0gZNQE9aFhLwhxX"><rect width="1000" height="1000"/></clipPath></defs><g clip-path="url(#_clipPath_CCtlsKTLxFUh1p74C0gZNQE9aFhLwhxX)"><g><g><g><g><path d=" M 614.333 321.833 C 599.958 249.958 536.833 196 461 196 C 400.792 196 348.5 230.167 322.458 280.167 C 259.75 286.833 211 339.958 211 404.333 C 211 473.292 267.042 529.333 336 529.333 L 606.833 529.333 C 664.333 529.333 711 482.667 711 425.167 C 711 370.167 668.292 325.583 614.333 321.833 Z " fill="rgb(2,66,163)"/><path d=" M 459.5 328.092 C 445.75 328.092 434.5 339.626 434.5 353.722 C 434.5 367.819 445.75 379.352 459.5 379.352 C 473.25 379.352 484.5 367.819 484.5 353.722 C 484.5 339.626 473.25 328.092 459.5 328.092 Z  M 534.5 353.722 C 534.5 311.304 500.875 276.831 459.5 276.831 C 418.125 276.831 384.5 311.304 384.5 353.722 C 384.5 382.17 399.625 406.903 422 420.232 L 434.5 397.934 C 419.625 388.963 409.5 372.688 409.5 353.722 C 409.5 325.4 431.875 302.461 459.5 302.461 C 487.125 302.461 509.5 325.4 509.5 353.722 C 509.5 372.688 499.375 388.963 484.5 397.934 L 497 420.232 C 519.375 406.903 534.5 382.17 534.5 353.722 Z  M 459.5 225.571 C 390.5 225.571 334.5 282.982 334.5 353.722 C 334.5 401.137 359.625 442.401 396.875 464.571 L 409.375 442.401 C 379.625 424.588 359.5 391.655 359.5 353.722 C 359.5 297.079 404.25 251.201 459.5 251.201 C 514.75 251.201 559.5 297.079 559.5 353.722 C 559.5 391.655 539.375 424.588 509.5 442.401 L 522 464.571 C 559.375 442.401 584.5 401.137 584.5 353.722 C 584.5 282.982 528.5 225.571 459.5 225.571 L 459.5 225.571 Z " fill="rgb(255,255,255)"/><mask id="_mask_6DrDP8avxKnU4i8oxv66xcT2dNw2b7u6" x="-200%" y="-200%" width="400%" height="400%"><rect x="-200%" y="-200%" width="400%" height="400%" style="fill:white;"/><line x1="460.567" y1="409.072" x2="459.5" y2="520.071" fill="black" stroke="none"/></mask><line x1="460.567" y1="409.072" x2="459.5" y2="520.071" mask="url(#_mask_6DrDP8avxKnU4i8oxv66xcT2dNw2b7u6)" vector-effect="non-scaling-stroke" stroke-width="30" stroke="rgb(255,255,255)" stroke-linejoin="miter" stroke-linecap="butt" stroke-miterlimit="4"/></g></g></g></g></g></svg>